999
"DXF R12 Output" (www.mydxf.blogspot.com)
 0 
SECTION
 2 
HEADER
 9 
$ACADVER
 1 
AC1009
 9 
$EXTMIN
 10 
 0 
 20 
 0 
 9 
$EXTMAX
 10 
 8.5 
 20 
 11 
 0 
ENDSEC
 0 
SECTION
 2 
ENTITIES
0
LINE
8
Layer 1
10
0.846666
20
320.847000
11
-0.846666
21
319.153000
0
LINE
8
Layer 1
10
0.000000
20
321.411000
11
0.000000
21
318.589000
0
LINE
8
Layer 1
10
2.257780
20
318.871000
11
1.128890
21
317.742110
0
LINE
8
Layer 1
10
1.693330
20
319.436000
11
0.564440
21
318.307110
0
LINE
8
Layer 1
10
1.128890
20
320.000000
11
0.000000
21
318.871110
0
LINE
8
0
10
191.448000
20
206.451000
11
212.781000
21
206.451000
0
LINE
8
0
10
212.781000
20
206.451000
11
212.781000
21
195.784000
0
LINE
8
0
10
212.781000
20
195.784000
11
191.448000
21
195.784000
0
LINE
8
0
10
191.448000
20
195.784000
11
191.448000
21
206.451000
0
LINE
8
0
10
191.448000
20
185.118000
11
212.781000
21
185.118000
0
LINE
8
0
10
212.781000
20
185.118000
11
212.781000
21
174.451000
0
LINE
8
0
10
212.781000
20
174.451000
11
191.448000
21
174.451000
0
LINE
8
0
10
191.448000
20
174.451000
11
191.448000
21
185.118000
0
LINE
8
0
10
191.448000
20
163.784000
11
212.781000
21
163.784000
0
LINE
8
0
10
212.781000
20
163.784000
11
212.781000
21
153.118000
0
LINE
8
0
10
212.781000
20
153.118000
11
191.448000
21
153.118000
0
LINE
8
0
10
191.448000
20
153.118000
11
191.448000
21
163.784000
0
LINE
8
0
10
191.448000
20
131.784000
11
212.781000
21
131.784000
0
LINE
8
0
10
212.781000
20
131.784000
11
212.781000
21
121.118000
0
LINE
8
0
10
212.781000
20
121.118000
11
191.448000
21
121.118000
0
LINE
8
0
10
191.448000
20
121.118000
11
191.448000
21
131.784000
0
LINE
8
0
10
963.364000
20
291.476000
11
963.364000
21
278.676000
0
LINE
8
0
10
963.364000
20
278.676000
11
987.364000
21
278.676000
0
LINE
8
0
10
987.364000
20
278.676000
11
987.364000
21
43.774700
0
LINE
8
0
10
987.364000
20
43.774700
11
752.463000
21
43.774700
0
LINE
8
0
10
752.463000
20
43.774700
11
752.463000
21
278.676000
0
LINE
8
0
10
752.463000
20
278.676000
11
776.463000
21
278.676000
0
LINE
8
0
10
776.463000
20
278.676000
11
776.463000
21
291.476000
0
LINE
8
0
10
776.463000
20
291.476000
11
963.364000
21
291.476000
0
LINE
8
0
10
981.796000
20
59.774700
11
971.364000
21
59.774700
0
LINE
8
0
10
971.364000
20
59.774700
11
971.364000
21
55.742700
0
LINE
8
0
10
971.364000
20
55.742700
11
981.796000
21
55.742700
0
LINE
8
0
10
981.796000
20
55.742700
11
981.796000
21
59.774700
0
LINE
8
0
10
768.463000
20
59.774700
11
758.031000
21
59.774700
0
LINE
8
0
10
758.031000
20
59.774700
11
758.031000
21
55.742700
0
LINE
8
0
10
758.031000
20
55.742700
11
768.463000
21
55.742700
0
LINE
8
0
10
768.463000
20
55.742700
11
768.463000
21
59.774700
0
LINE
8
0
10
981.796000
20
266.708000
11
971.364000
21
266.708000
0
LINE
8
0
10
971.364000
20
266.708000
11
971.364000
21
262.676000
0
LINE
8
0
10
971.364000
20
262.676000
11
981.796000
21
262.676000
0
LINE
8
0
10
981.796000
20
262.676000
11
981.796000
21
266.708000
0
LINE
8
0
10
768.463000
20
266.708000
11
758.031000
21
266.708000
0
LINE
8
0
10
758.031000
20
266.708000
11
758.031000
21
262.676000
0
LINE
8
0
10
758.031000
20
262.676000
11
768.463000
21
262.676000
0
LINE
8
0
10
768.463000
20
262.676000
11
768.463000
21
266.708000
0
LINE
8
0
10
956.196000
20
82.807600
11
957.002642
21
81.323072
0
LINE
8
0
10
957.002642
20
81.323072
11
957.662347
21
79.795041
0
LINE
8
0
10
957.662347
20
79.795041
11
958.547075
21
76.646028
0
LINE
8
0
10
958.547075
20
76.646028
11
958.862434
21
73.435673
0
LINE
8
0
10
958.862434
20
73.435673
11
958.620679
21
70.239087
0
LINE
8
0
10
958.620679
20
70.239087
11
957.834060
21
67.131380
0
LINE
8
0
10
957.834060
20
67.131380
11
956.514830
21
64.187664
0
LINE
8
0
10
956.514830
20
64.187664
11
954.675242
21
61.483050
0
LINE
8
0
10
954.675242
20
61.483050
11
953.564143
21
60.243878
0
LINE
8
0
10
953.564143
20
60.243878
11
952.327549
21
59.092648
0
LINE
8
0
10
952.327549
20
59.092648
11
950.992251
21
58.057527
0
LINE
8
0
10
950.992251
20
58.057527
11
949.590362
21
57.160422
0
LINE
8
0
10
949.590362
20
57.160422
11
946.624864
21
55.780260
0
LINE
8
0
10
946.624864
20
55.780260
11
943.507159
21
54.952163
0
LINE
8
0
10
943.507159
20
54.952163
11
940.313350
21
54.676131
0
LINE
8
0
10
940.313350
20
54.676131
11
937.119541
21
54.952163
0
LINE
8
0
10
937.119541
20
54.952163
11
934.001836
21
55.780260
0
LINE
8
0
10
934.001836
20
55.780260
11
931.036338
21
57.160422
0
LINE
8
0
10
931.036338
20
57.160422
11
929.634449
21
58.057527
0
LINE
8
0
10
929.634449
20
58.057527
11
928.299151
21
59.092648
0
LINE
8
0
10
928.299151
20
59.092648
11
927.062557
21
60.243878
0
LINE
8
0
10
927.062557
20
60.243878
11
925.951458
21
61.483050
0
LINE
8
0
10
925.951458
20
61.483050
11
924.111870
21
64.187664
0
LINE
8
0
10
924.111870
20
64.187664
11
922.792640
21
67.131380
0
LINE
8
0
10
922.792640
20
67.131380
11
922.006021
21
70.239087
0
LINE
8
0
10
922.006021
20
70.239087
11
921.764266
21
73.435673
0
LINE
8
0
10
921.764266
20
73.435673
11
922.079625
21
76.646028
0
LINE
8
0
10
922.079625
20
76.646028
11
922.964353
21
79.795041
0
LINE
8
0
10
922.964353
20
79.795041
11
923.624058
21
81.323072
0
LINE
8
0
10
923.624058
20
81.323072
11
924.430700
21
82.807600
0
LINE
8
0
10
924.430700
20
82.807600
11
924.431000
21
239.643000
0
LINE
8
0
10
924.431000
20
239.643000
11
923.624358
21
241.127528
0
LINE
8
0
10
923.624358
20
241.127528
11
922.964653
21
242.655559
0
LINE
8
0
10
922.964653
20
242.655559
11
922.079925
21
245.804572
0
LINE
8
0
10
922.079925
20
245.804572
11
921.764566
21
249.014927
0
LINE
8
0
10
921.764566
20
249.014927
11
922.006321
21
252.211513
0
LINE
8
0
10
922.006321
20
252.211513
11
922.792940
21
255.319220
0
LINE
8
0
10
922.792940
20
255.319220
11
924.112170
21
258.262936
0
LINE
8
0
10
924.112170
20
258.262936
11
925.951758
21
260.967550
0
LINE
8
0
10
925.951758
20
260.967550
11
927.062857
21
262.206722
0
LINE
8
0
10
927.062857
20
262.206722
11
928.299451
21
263.357952
0
LINE
8
0
10
928.299451
20
263.357952
11
929.634749
21
264.393073
0
LINE
8
0
10
929.634749
20
264.393073
11
931.036638
21
265.290178
0
LINE
8
0
10
931.036638
20
265.290178
11
934.002136
21
266.670340
0
LINE
8
0
10
934.002136
20
266.670340
11
937.119841
21
267.498437
0
LINE
8
0
10
937.119841
20
267.498437
11
940.313650
21
267.774469
0
LINE
8
0
10
940.313650
20
267.774469
11
943.507459
21
267.498437
0
LINE
8
0
10
943.507459
20
267.498437
11
946.625164
21
266.670340
0
LINE
8
0
10
946.625164
20
266.670340
11
949.590662
21
265.290178
0
LINE
8
0
10
949.590662
20
265.290178
11
950.992551
21
264.393073
0
LINE
8
0
10
950.992551
20
264.393073
11
952.327849
21
263.357952
0
LINE
8
0
10
952.327849
20
263.357952
11
953.564443
21
262.206722
0
LINE
8
0
10
953.564443
20
262.206722
11
954.675542
21
260.967550
0
LINE
8
0
10
954.675542
20
260.967550
11
956.515130
21
258.262936
0
LINE
8
0
10
956.515130
20
258.262936
11
957.834360
21
255.319220
0
LINE
8
0
10
957.834360
20
255.319220
11
958.620979
21
252.211513
0
LINE
8
0
10
958.620979
20
252.211513
11
958.862734
21
249.014927
0
LINE
8
0
10
958.862734
20
249.014927
11
958.547375
21
245.804572
0
LINE
8
0
10
958.547375
20
245.804572
11
957.662647
21
242.655559
0
LINE
8
0
10
957.662647
20
242.655559
11
957.002942
21
241.127528
0
LINE
8
0
10
957.002942
20
241.127528
11
956.196300
21
239.643000
0
LINE
8
0
10
956.196300
20
239.643000
11
956.196000
21
82.807600
0
LINE
8
0
10
909.263000
20
82.807600
11
910.069642
21
81.323072
0
LINE
8
0
10
910.069642
20
81.323072
11
910.729347
21
79.795041
0
LINE
8
0
10
910.729347
20
79.795041
11
911.614075
21
76.646028
0
LINE
8
0
10
911.614075
20
76.646028
11
911.929434
21
73.435673
0
LINE
8
0
10
911.929434
20
73.435673
11
911.687679
21
70.239087
0
LINE
8
0
10
911.687679
20
70.239087
11
910.901060
21
67.131380
0
LINE
8
0
10
910.901060
20
67.131380
11
909.581830
21
64.187664
0
LINE
8
0
10
909.581830
20
64.187664
11
907.742242
21
61.483050
0
LINE
8
0
10
907.742242
20
61.483050
11
906.631143
21
60.243878
0
LINE
8
0
10
906.631143
20
60.243878
11
905.394549
21
59.092648
0
LINE
8
0
10
905.394549
20
59.092648
11
904.059251
21
58.057527
0
LINE
8
0
10
904.059251
20
58.057527
11
902.657362
21
57.160422
0
LINE
8
0
10
902.657362
20
57.160422
11
899.691864
21
55.780260
0
LINE
8
0
10
899.691864
20
55.780260
11
896.574159
21
54.952163
0
LINE
8
0
10
896.574159
20
54.952163
11
893.380350
21
54.676131
0
LINE
8
0
10
893.380350
20
54.676131
11
890.186541
21
54.952163
0
LINE
8
0
10
890.186541
20
54.952163
11
887.068836
21
55.780260
0
LINE
8
0
10
887.068836
20
55.780260
11
884.103338
21
57.160422
0
LINE
8
0
10
884.103338
20
57.160422
11
882.701449
21
58.057527
0
LINE
8
0
10
882.701449
20
58.057527
11
881.366151
21
59.092648
0
LINE
8
0
10
881.366151
20
59.092648
11
880.129557
21
60.243878
0
LINE
8
0
10
880.129557
20
60.243878
11
879.018458
21
61.483050
0
LINE
8
0
10
879.018458
20
61.483050
11
877.178870
21
64.187664
0
LINE
8
0
10
877.178870
20
64.187664
11
875.859640
21
67.131380
0
LINE
8
0
10
875.859640
20
67.131380
11
875.073021
21
70.239087
0
LINE
8
0
10
875.073021
20
70.239087
11
874.831266
21
73.435673
0
LINE
8
0
10
874.831266
20
73.435673
11
875.146625
21
76.646028
0
LINE
8
0
10
875.146625
20
76.646028
11
876.031353
21
79.795041
0
LINE
8
0
10
876.031353
20
79.795041
11
876.691058
21
81.323072
0
LINE
8
0
10
876.691058
20
81.323072
11
877.497700
21
82.807600
0
LINE
8
0
10
877.497700
20
82.807600
11
877.497000
21
239.643000
0
LINE
8
0
10
877.497000
20
239.643000
11
876.690358
21
241.127528
0
LINE
8
0
10
876.690358
20
241.127528
11
876.030653
21
242.655559
0
LINE
8
0
10
876.030653
20
242.655559
11
875.145925
21
245.804572
0
LINE
8
0
10
875.145925
20
245.804572
11
874.830566
21
249.014927
0
LINE
8
0
10
874.830566
20
249.014927
11
875.072321
21
252.211513
0
LINE
8
0
10
875.072321
20
252.211513
11
875.858940
21
255.319220
0
LINE
8
0
10
875.858940
20
255.319220
11
877.178170
21
258.262936
0
LINE
8
0
10
877.178170
20
258.262936
11
879.017758
21
260.967550
0
LINE
8
0
10
879.017758
20
260.967550
11
880.128857
21
262.206722
0
LINE
8
0
10
880.128857
20
262.206722
11
881.365451
21
263.357952
0
LINE
8
0
10
881.365451
20
263.357952
11
882.700749
21
264.393073
0
LINE
8
0
10
882.700749
20
264.393073
11
884.102638
21
265.290178
0
LINE
8
0
10
884.102638
20
265.290178
11
887.068136
21
266.670340
0
LINE
8
0
10
887.068136
20
266.670340
11
890.185841
21
267.498437
0
LINE
8
0
10
890.185841
20
267.498437
11
893.379650
21
267.774469
0
LINE
8
0
10
893.379650
20
267.774469
11
896.573459
21
267.498437
0
LINE
8
0
10
896.573459
20
267.498437
11
899.691164
21
266.670340
0
LINE
8
0
10
899.691164
20
266.670340
11
902.656662
21
265.290178
0
LINE
8
0
10
902.656662
20
265.290178
11
904.058551
21
264.393073
0
LINE
8
0
10
904.058551
20
264.393073
11
905.393849
21
263.357952
0
LINE
8
0
10
905.393849
20
263.357952
11
906.630443
21
262.206722
0
LINE
8
0
10
906.630443
20
262.206722
11
907.741542
21
260.967550
0
LINE
8
0
10
907.741542
20
260.967550
11
909.581130
21
258.262936
0
LINE
8
0
10
909.581130
20
258.262936
11
910.900360
21
255.319220
0
LINE
8
0
10
910.900360
20
255.319220
11
911.686979
21
252.211513
0
LINE
8
0
10
911.686979
20
252.211513
11
911.928734
21
249.014927
0
LINE
8
0
10
911.928734
20
249.014927
11
911.613375
21
245.804572
0
LINE
8
0
10
911.613375
20
245.804572
11
910.728647
21
242.655559
0
LINE
8
0
10
910.728647
20
242.655559
11
910.068942
21
241.127528
0
LINE
8
0
10
910.068942
20
241.127528
11
909.262300
21
239.643000
0
LINE
8
0
10
909.262300
20
239.643000
11
909.263000
21
82.807600
0
LINE
8
0
10
862.329000
20
82.807600
11
863.135642
21
81.323072
0
LINE
8
0
10
863.135642
20
81.323072
11
863.795347
21
79.795041
0
LINE
8
0
10
863.795347
20
79.795041
11
864.680075
21
76.646028
0
LINE
8
0
10
864.680075
20
76.646028
11
864.995434
21
73.435673
0
LINE
8
0
10
864.995434
20
73.435673
11
864.753679
21
70.239087
0
LINE
8
0
10
864.753679
20
70.239087
11
863.967060
21
67.131380
0
LINE
8
0
10
863.967060
20
67.131380
11
862.647830
21
64.187664
0
LINE
8
0
10
862.647830
20
64.187664
11
860.808242
21
61.483050
0
LINE
8
0
10
860.808242
20
61.483050
11
859.697143
21
60.243878
0
LINE
8
0
10
859.697143
20
60.243878
11
858.460549
21
59.092648
0
LINE
8
0
10
858.460549
20
59.092648
11
857.125251
21
58.057527
0
LINE
8
0
10
857.125251
20
58.057527
11
855.723362
21
57.160422
0
LINE
8
0
10
855.723362
20
57.160422
11
852.757864
21
55.780260
0
LINE
8
0
10
852.757864
20
55.780260
11
849.640159
21
54.952163
0
LINE
8
0
10
849.640159
20
54.952163
11
846.446350
21
54.676131
0
LINE
8
0
10
846.446350
20
54.676131
11
843.252541
21
54.952163
0
LINE
8
0
10
843.252541
20
54.952163
11
840.134836
21
55.780260
0
LINE
8
0
10
840.134836
20
55.780260
11
837.169338
21
57.160422
0
LINE
8
0
10
837.169338
20
57.160422
11
835.767449
21
58.057527
0
LINE
8
0
10
835.767449
20
58.057527
11
834.432151
21
59.092648
0
LINE
8
0
10
834.432151
20
59.092648
11
833.195557
21
60.243878
0
LINE
8
0
10
833.195557
20
60.243878
11
832.084458
21
61.483050
0
LINE
8
0
10
832.084458
20
61.483050
11
830.244870
21
64.187664
0
LINE
8
0
10
830.244870
20
64.187664
11
828.925640
21
67.131380
0
LINE
8
0
10
828.925640
20
67.131380
11
828.139021
21
70.239087
0
LINE
8
0
10
828.139021
20
70.239087
11
827.897266
21
73.435673
0
LINE
8
0
10
827.897266
20
73.435673
11
828.212625
21
76.646028
0
LINE
8
0
10
828.212625
20
76.646028
11
829.097353
21
79.795041
0
LINE
8
0
10
829.097353
20
79.795041
11
829.757058
21
81.323072
0
LINE
8
0
10
829.757058
20
81.323072
11
830.563700
21
82.807600
0
LINE
8
0
10
830.563700
20
82.807600
11
830.564000
21
239.643000
0
LINE
8
0
10
830.564000
20
239.643000
11
829.757358
21
241.127528
0
LINE
8
0
10
829.757358
20
241.127528
11
829.097653
21
242.655559
0
LINE
8
0
10
829.097653
20
242.655559
11
828.212925
21
245.804572
0
LINE
8
0
10
828.212925
20
245.804572
11
827.897566
21
249.014927
0
LINE
8
0
10
827.897566
20
249.014927
11
828.139321
21
252.211513
0
LINE
8
0
10
828.139321
20
252.211513
11
828.925940
21
255.319220
0
LINE
8
0
10
828.925940
20
255.319220
11
830.245170
21
258.262936
0
LINE
8
0
10
830.245170
20
258.262936
11
832.084758
21
260.967550
0
LINE
8
0
10
832.084758
20
260.967550
11
833.195857
21
262.206722
0
LINE
8
0
10
833.195857
20
262.206722
11
834.432451
21
263.357952
0
LINE
8
0
10
834.432451
20
263.357952
11
835.767749
21
264.393073
0
LINE
8
0
10
835.767749
20
264.393073
11
837.169638
21
265.290178
0
LINE
8
0
10
837.169638
20
265.290178
11
840.135136
21
266.670340
0
LINE
8
0
10
840.135136
20
266.670340
11
843.252841
21
267.498437
0
LINE
8
0
10
843.252841
20
267.498437
11
846.446650
21
267.774469
0
LINE
8
0
10
846.446650
20
267.774469
11
849.640459
21
267.498437
0
LINE
8
0
10
849.640459
20
267.498437
11
852.758164
21
266.670340
0
LINE
8
0
10
852.758164
20
266.670340
11
855.723662
21
265.290178
0
LINE
8
0
10
855.723662
20
265.290178
11
857.125551
21
264.393073
0
LINE
8
0
10
857.125551
20
264.393073
11
858.460849
21
263.357952
0
LINE
8
0
10
858.460849
20
263.357952
11
859.697443
21
262.206722
0
LINE
8
0
10
859.697443
20
262.206722
11
860.808542
21
260.967550
0
LINE
8
0
10
860.808542
20
260.967550
11
862.648130
21
258.262936
0
LINE
8
0
10
862.648130
20
258.262936
11
863.967360
21
255.319220
0
LINE
8
0
10
863.967360
20
255.319220
11
864.753979
21
252.211513
0
LINE
8
0
10
864.753979
20
252.211513
11
864.995734
21
249.014927
0
LINE
8
0
10
864.995734
20
249.014927
11
864.680375
21
245.804572
0
LINE
8
0
10
864.680375
20
245.804572
11
863.795647
21
242.655559
0
LINE
8
0
10
863.795647
20
242.655559
11
863.135942
21
241.127528
0
LINE
8
0
10
863.135942
20
241.127528
11
862.329300
21
239.643000
0
LINE
8
0
10
862.329300
20
239.643000
11
862.329000
21
82.807600
0
LINE
8
0
10
815.396000
20
82.807600
11
816.202642
21
81.323072
0
LINE
8
0
10
816.202642
20
81.323072
11
816.862347
21
79.795041
0
LINE
8
0
10
816.862347
20
79.795041
11
817.747075
21
76.646028
0
LINE
8
0
10
817.747075
20
76.646028
11
818.062434
21
73.435673
0
LINE
8
0
10
818.062434
20
73.435673
11
817.820679
21
70.239087
0
LINE
8
0
10
817.820679
20
70.239087
11
817.034060
21
67.131380
0
LINE
8
0
10
817.034060
20
67.131380
11
815.714830
21
64.187664
0
LINE
8
0
10
815.714830
20
64.187664
11
813.875242
21
61.483050
0
LINE
8
0
10
813.875242
20
61.483050
11
812.764143
21
60.243878
0
LINE
8
0
10
812.764143
20
60.243878
11
811.527549
21
59.092648
0
LINE
8
0
10
811.527549
20
59.092648
11
810.192251
21
58.057527
0
LINE
8
0
10
810.192251
20
58.057527
11
808.790362
21
57.160422
0
LINE
8
0
10
808.790362
20
57.160422
11
805.824864
21
55.780260
0
LINE
8
0
10
805.824864
20
55.780260
11
802.707159
21
54.952163
0
LINE
8
0
10
802.707159
20
54.952163
11
799.513350
21
54.676131
0
LINE
8
0
10
799.513350
20
54.676131
11
796.319541
21
54.952163
0
LINE
8
0
10
796.319541
20
54.952163
11
793.201836
21
55.780260
0
LINE
8
0
10
793.201836
20
55.780260
11
790.236338
21
57.160422
0
LINE
8
0
10
790.236338
20
57.160422
11
788.834449
21
58.057527
0
LINE
8
0
10
788.834449
20
58.057527
11
787.499151
21
59.092648
0
LINE
8
0
10
787.499151
20
59.092648
11
786.262557
21
60.243878
0
LINE
8
0
10
786.262557
20
60.243878
11
785.151458
21
61.483050
0
LINE
8
0
10
785.151458
20
61.483050
11
783.311870
21
64.187664
0
LINE
8
0
10
783.311870
20
64.187664
11
781.992640
21
67.131380
0
LINE
8
0
10
781.992640
20
67.131380
11
781.206021
21
70.239087
0
LINE
8
0
10
781.206021
20
70.239087
11
780.964266
21
73.435673
0
LINE
8
0
10
780.964266
20
73.435673
11
781.279625
21
76.646028
0
LINE
8
0
10
781.279625
20
76.646028
11
782.164353
21
79.795041
0
LINE
8
0
10
782.164353
20
79.795041
11
782.824058
21
81.323072
0
LINE
8
0
10
782.824058
20
81.323072
11
783.630700
21
82.807600
0
LINE
8
0
10
783.630700
20
82.807600
11
783.631000
21
239.643000
0
LINE
8
0
10
783.631000
20
239.643000
11
782.824358
21
241.127528
0
LINE
8
0
10
782.824358
20
241.127528
11
782.164653
21
242.655559
0
LINE
8
0
10
782.164653
20
242.655559
11
781.279925
21
245.804572
0
LINE
8
0
10
781.279925
20
245.804572
11
780.964566
21
249.014927
0
LINE
8
0
10
780.964566
20
249.014927
11
781.206321
21
252.211513
0
LINE
8
0
10
781.206321
20
252.211513
11
781.992940
21
255.319220
0
LINE
8
0
10
781.992940
20
255.319220
11
783.312170
21
258.262936
0
LINE
8
0
10
783.312170
20
258.262936
11
785.151758
21
260.967550
0
LINE
8
0
10
785.151758
20
260.967550
11
786.262857
21
262.206722
0
LINE
8
0
10
786.262857
20
262.206722
11
787.499451
21
263.357952
0
LINE
8
0
10
787.499451
20
263.357952
11
788.834749
21
264.393073
0
LINE
8
0
10
788.834749
20
264.393073
11
790.236638
21
265.290178
0
LINE
8
0
10
790.236638
20
265.290178
11
793.202136
21
266.670340
0
LINE
8
0
10
793.202136
20
266.670340
11
796.319841
21
267.498437
0
LINE
8
0
10
796.319841
20
267.498437
11
799.513650
21
267.774469
0
LINE
8
0
10
799.513650
20
267.774469
11
802.707459
21
267.498437
0
LINE
8
0
10
802.707459
20
267.498437
11
805.825164
21
266.670340
0
LINE
8
0
10
805.825164
20
266.670340
11
808.790662
21
265.290178
0
LINE
8
0
10
808.790662
20
265.290178
11
810.192551
21
264.393073
0
LINE
8
0
10
810.192551
20
264.393073
11
811.527849
21
263.357952
0
LINE
8
0
10
811.527849
20
263.357952
11
812.764443
21
262.206722
0
LINE
8
0
10
812.764443
20
262.206722
11
813.875542
21
260.967550
0
LINE
8
0
10
813.875542
20
260.967550
11
815.715130
21
258.262936
0
LINE
8
0
10
815.715130
20
258.262936
11
817.034360
21
255.319220
0
LINE
8
0
10
817.034360
20
255.319220
11
817.820979
21
252.211513
0
LINE
8
0
10
817.820979
20
252.211513
11
818.062734
21
249.014927
0
LINE
8
0
10
818.062734
20
249.014927
11
817.747375
21
245.804572
0
LINE
8
0
10
817.747375
20
245.804572
11
816.862647
21
242.655559
0
LINE
8
0
10
816.862647
20
242.655559
11
816.202942
21
241.127528
0
LINE
8
0
10
816.202942
20
241.127528
11
815.396300
21
239.643000
0
LINE
8
0
10
815.396300
20
239.643000
11
815.396000
21
82.807600
0
LINE
8
0
10
506.584000
20
116.603000
11
741.485000
21
116.603000
0
LINE
8
0
10
741.485000
20
116.603000
11
741.485000
21
41.701900
0
LINE
8
0
10
741.485000
20
41.701900
11
506.584000
21
41.701900
0
LINE
8
0
10
506.584000
20
41.701900
11
506.584000
21
116.603000
0
LINE
8
0
10
717.250000
20
72.635200
11
530.819000
21
72.635200
0
LINE
8
0
10
530.819000
20
72.635200
11
530.819000
21
68.603200
0
LINE
8
0
10
530.819000
20
68.603200
11
717.250000
21
68.603200
0
LINE
8
0
10
717.250000
20
68.603200
11
717.250000
21
72.635200
0
LINE
8
0
10
717.250000
20
81.168500
11
530.819000
21
81.168500
0
LINE
8
0
10
530.819000
20
81.168500
11
530.819000
21
77.136500
0
LINE
8
0
10
530.819000
20
77.136500
11
717.250000
21
77.136500
0
LINE
8
0
10
717.250000
20
77.136500
11
717.250000
21
81.168500
0
LINE
8
0
10
717.250000
20
89.701900
11
530.819000
21
89.701900
0
LINE
8
0
10
530.819000
20
89.701900
11
530.819000
21
85.669900
0
LINE
8
0
10
530.819000
20
85.669900
11
717.250000
21
85.669900
0
LINE
8
0
10
717.250000
20
85.669900
11
717.250000
21
89.701900
0
LINE
8
0
10
506.584000
20
201.936000
11
741.485000
21
201.936000
0
LINE
8
0
10
741.485000
20
201.936000
11
741.485000
21
127.035000
0
LINE
8
0
10
741.485000
20
127.035000
11
506.584000
21
127.035000
0
LINE
8
0
10
506.584000
20
127.035000
11
506.584000
21
201.936000
0
LINE
8
0
10
717.250000
20
157.968000
11
530.819000
21
157.968000
0
LINE
8
0
10
530.819000
20
157.968000
11
530.819000
21
153.936000
0
LINE
8
0
10
530.819000
20
153.936000
11
717.250000
21
153.936000
0
LINE
8
0
10
717.250000
20
153.936000
11
717.250000
21
157.968000
0
LINE
8
0
10
717.250000
20
166.502000
11
530.819000
21
166.502000
0
LINE
8
0
10
530.819000
20
166.502000
11
530.819000
21
162.470000
0
LINE
8
0
10
530.819000
20
162.470000
11
717.250000
21
162.470000
0
LINE
8
0
10
717.250000
20
162.470000
11
717.250000
21
166.502000
0
LINE
8
0
10
717.250000
20
175.035000
11
530.819000
21
175.035000
0
LINE
8
0
10
530.819000
20
175.035000
11
530.819000
21
171.003000
0
LINE
8
0
10
530.819000
20
171.003000
11
717.250000
21
171.003000
0
LINE
8
0
10
717.250000
20
171.003000
11
717.250000
21
175.035000
0
LINE
8
0
10
506.584000
20
287.270000
11
741.485000
21
287.270000
0
LINE
8
0
10
741.485000
20
287.270000
11
741.485000
21
212.368000
0
LINE
8
0
10
741.485000
20
212.368000
11
506.584000
21
212.368000
0
LINE
8
0
10
506.584000
20
212.368000
11
506.584000
21
287.270000
0
LINE
8
0
10
717.250000
20
243.302000
11
530.819000
21
243.302000
0
LINE
8
0
10
530.819000
20
243.302000
11
530.819000
21
239.270000
0
LINE
8
0
10
530.819000
20
239.270000
11
717.250000
21
239.270000
0
LINE
8
0
10
717.250000
20
239.270000
11
717.250000
21
243.302000
0
LINE
8
0
10
717.250000
20
251.835000
11
530.819000
21
251.835000
0
LINE
8
0
10
530.819000
20
251.835000
11
530.819000
21
247.803000
0
LINE
8
0
10
530.819000
20
247.803000
11
717.250000
21
247.803000
0
LINE
8
0
10
717.250000
20
247.803000
11
717.250000
21
251.835000
0
LINE
8
0
10
717.250000
20
260.368000
11
530.819000
21
260.368000
0
LINE
8
0
10
530.819000
20
260.368000
11
530.819000
21
256.336000
0
LINE
8
0
10
530.819000
20
256.336000
11
717.250000
21
256.336000
0
LINE
8
0
10
717.250000
20
256.336000
11
717.250000
21
260.368000
0
LINE
8
0
10
468.183000
20
281.429000
11
492.183000
21
281.429000
0
LINE
8
0
10
492.183000
20
281.429000
11
492.183000
21
46.527700
0
LINE
8
0
10
492.183000
20
46.527700
11
257.282000
21
46.527700
0
LINE
8
0
10
257.282000
20
46.527700
11
257.278049
21
282.607700
0
LINE
8
0
10
257.278049
20
282.607700
11
281.278349
21
282.473447
0
LINE
8
0
10
281.278349
20
282.473447
11
281.349949
21
295.273247
0
LINE
8
0
10
281.349949
20
295.273247
11
468.182949
21
294.228177
0
LINE
8
0
10
468.182949
20
294.228177
11
468.183000
21
281.429000
0
LINE
8
0
10
486.615000
20
62.527700
11
476.183000
21
62.527700
0
LINE
8
0
10
476.183000
20
62.527700
11
476.183000
21
58.495700
0
LINE
8
0
10
476.183000
20
58.495700
11
486.615000
21
58.495700
0
LINE
8
0
10
486.615000
20
58.495700
11
486.615000
21
62.527700
0
LINE
8
0
10
273.282000
20
62.528000
11
262.850000
21
62.528000
0
LINE
8
0
10
262.850000
20
62.528000
11
262.850000
21
58.496000
0
LINE
8
0
10
262.850000
20
58.496000
11
273.282000
21
58.496000
0
LINE
8
0
10
273.282000
20
58.496000
11
273.282000
21
62.528000
0
LINE
8
0
10
486.615000
20
269.461000
11
476.183000
21
269.461000
0
LINE
8
0
10
476.183000
20
269.461000
11
476.183000
21
265.429000
0
LINE
8
0
10
476.183000
20
265.429000
11
486.615000
21
265.429000
0
LINE
8
0
10
486.615000
20
265.429000
11
486.615000
21
269.461000
0
LINE
8
0
10
273.188000
20
270.640000
11
262.756000
21
270.639831
0
LINE
8
0
10
262.756000
20
270.639831
11
262.756056
21
266.607841
0
LINE
8
0
10
262.756056
20
266.607841
11
273.188056
21
266.608010
0
LINE
8
0
10
273.188056
20
266.608010
11
273.188000
21
270.640000
0
LINE
8
0
10
225.770000
20
280.692000
11
249.770000
21
280.692000
0
LINE
8
0
10
249.770000
20
280.692000
11
249.770000
21
45.791200
0
LINE
8
0
10
249.770000
20
45.791200
11
14.868800
21
45.791200
0
LINE
8
0
10
14.868800
20
45.791200
11
14.868800
21
280.692000
0
LINE
8
0
10
14.868800
20
280.692000
11
38.868700
21
280.692000
0
LINE
8
0
10
38.868700
20
280.692000
11
38.868700
21
293.492000
0
LINE
8
0
10
38.868700
20
293.492000
11
225.770000
21
293.492000
0
LINE
8
0
10
225.770000
20
293.492000
11
225.770000
21
280.692000
0
LINE
8
0
10
244.202000
20
61.791200
11
233.770000
21
61.791200
0
LINE
8
0
10
233.770000
20
61.791200
11
233.770000
21
57.759200
0
LINE
8
0
10
233.770000
20
57.759200
11
244.202000
21
57.759200
0
LINE
8
0
10
244.202000
20
57.759200
11
244.202000
21
61.791200
0
LINE
8
0
10
30.868800
20
61.791200
11
20.436800
21
61.791200
0
LINE
8
0
10
20.436800
20
61.791200
11
20.436800
21
57.759200
0
LINE
8
0
10
20.436800
20
57.759200
11
30.868800
21
57.759200
0
LINE
8
0
10
30.868800
20
57.759200
11
30.868800
21
61.791200
0
LINE
8
0
10
244.202000
20
268.724000
11
233.770000
21
268.724000
0
LINE
8
0
10
233.770000
20
268.724000
11
233.770000
21
264.692000
0
LINE
8
0
10
233.770000
20
264.692000
11
244.202000
21
264.692000
0
LINE
8
0
10
244.202000
20
264.692000
11
244.202000
21
268.724000
0
LINE
8
0
10
30.868800
20
268.724000
11
20.436800
21
268.724000
0
LINE
8
0
10
20.436800
20
268.724000
11
20.436800
21
264.692000
0
LINE
8
0
10
20.436800
20
264.692000
11
30.868800
21
264.692000
0
LINE
8
0
10
30.868800
20
264.692000
11
30.868800
21
268.724000
0
LINE
8
0
10
218.602000
20
84.824100
11
219.408642
21
83.339572
0
LINE
8
0
10
219.408642
20
83.339572
11
220.068347
21
81.811541
0
LINE
8
0
10
220.068347
20
81.811541
11
220.953075
21
78.662528
0
LINE
8
0
10
220.953075
20
78.662528
11
221.268434
21
75.452173
0
LINE
8
0
10
221.268434
20
75.452173
11
221.026679
21
72.255587
0
LINE
8
0
10
221.026679
20
72.255587
11
220.240060
21
69.147880
0
LINE
8
0
10
220.240060
20
69.147880
11
218.920830
21
66.204164
0
LINE
8
0
10
218.920830
20
66.204164
11
217.081242
21
63.499550
0
LINE
8
0
10
217.081242
20
63.499550
11
215.970143
21
62.260378
0
LINE
8
0
10
215.970143
20
62.260378
11
214.733549
21
61.109148
0
LINE
8
0
10
214.733549
20
61.109148
11
213.398251
21
60.074027
0
LINE
8
0
10
213.398251
20
60.074027
11
211.996362
21
59.176922
0
LINE
8
0
10
211.996362
20
59.176922
11
209.030864
21
57.796760
0
LINE
8
0
10
209.030864
20
57.796760
11
205.913159
21
56.968663
0
LINE
8
0
10
205.913159
20
56.968663
11
202.719350
21
56.692631
0
LINE
8
0
10
202.719350
20
56.692631
11
199.525541
21
56.968663
0
LINE
8
0
10
199.525541
20
56.968663
11
196.407836
21
57.796760
0
LINE
8
0
10
196.407836
20
57.796760
11
193.442338
21
59.176922
0
LINE
8
0
10
193.442338
20
59.176922
11
192.040449
21
60.074027
0
LINE
8
0
10
192.040449
20
60.074027
11
190.705151
21
61.109148
0
LINE
8
0
10
190.705151
20
61.109148
11
189.468557
21
62.260378
0
LINE
8
0
10
189.468557
20
62.260378
11
188.357458
21
63.499550
0
LINE
8
0
10
188.357458
20
63.499550
11
186.517870
21
66.204164
0
LINE
8
0
10
186.517870
20
66.204164
11
185.198640
21
69.147880
0
LINE
8
0
10
185.198640
20
69.147880
11
184.412021
21
72.255587
0
LINE
8
0
10
184.412021
20
72.255587
11
184.170266
21
75.452173
0
LINE
8
0
10
184.170266
20
75.452173
11
184.485625
21
78.662528
0
LINE
8
0
10
184.485625
20
78.662528
11
185.370353
21
81.811541
0
LINE
8
0
10
185.370353
20
81.811541
11
186.030058
21
83.339572
0
LINE
8
0
10
186.030058
20
83.339572
11
186.836700
21
84.824100
0
LINE
8
0
10
186.836700
20
84.824100
11
186.837000
21
241.660000
0
LINE
8
0
10
186.837000
20
241.660000
11
186.030358
21
243.144528
0
LINE
8
0
10
186.030358
20
243.144528
11
185.370653
21
244.672559
0
LINE
8
0
10
185.370653
20
244.672559
11
184.485925
21
247.821572
0
LINE
8
0
10
184.485925
20
247.821572
11
184.170566
21
251.031927
0
LINE
8
0
10
184.170566
20
251.031927
11
184.412321
21
254.228513
0
LINE
8
0
10
184.412321
20
254.228513
11
185.198940
21
257.336220
0
LINE
8
0
10
185.198940
20
257.336220
11
186.518170
21
260.279936
0
LINE
8
0
10
186.518170
20
260.279936
11
188.357758
21
262.984550
0
LINE
8
0
10
188.357758
20
262.984550
11
189.468857
21
264.223722
0
LINE
8
0
10
189.468857
20
264.223722
11
190.705451
21
265.374952
0
LINE
8
0
10
190.705451
20
265.374952
11
192.040749
21
266.410073
0
LINE
8
0
10
192.040749
20
266.410073
11
193.442638
21
267.307178
0
LINE
8
0
10
193.442638
20
267.307178
11
196.408136
21
268.687340
0
LINE
8
0
10
196.408136
20
268.687340
11
199.525841
21
269.515437
0
LINE
8
0
10
199.525841
20
269.515437
11
202.719650
21
269.791469
0
LINE
8
0
10
202.719650
20
269.791469
11
205.913459
21
269.515437
0
LINE
8
0
10
205.913459
20
269.515437
11
209.031164
21
268.687340
0
LINE
8
0
10
209.031164
20
268.687340
11
211.996662
21
267.307178
0
LINE
8
0
10
211.996662
20
267.307178
11
213.398551
21
266.410073
0
LINE
8
0
10
213.398551
20
266.410073
11
214.733849
21
265.374952
0
LINE
8
0
10
214.733849
20
265.374952
11
215.970443
21
264.223722
0
LINE
8
0
10
215.970443
20
264.223722
11
217.081542
21
262.984550
0
LINE
8
0
10
217.081542
20
262.984550
11
218.921130
21
260.279936
0
LINE
8
0
10
218.921130
20
260.279936
11
220.240360
21
257.336220
0
LINE
8
0
10
220.240360
20
257.336220
11
221.026979
21
254.228513
0
LINE
8
0
10
221.026979
20
254.228513
11
221.268734
21
251.031927
0
LINE
8
0
10
221.268734
20
251.031927
11
220.953375
21
247.821572
0
LINE
8
0
10
220.953375
20
247.821572
11
220.068647
21
244.672559
0
LINE
8
0
10
220.068647
20
244.672559
11
219.408942
21
243.144528
0
LINE
8
0
10
219.408942
20
243.144528
11
218.602300
21
241.660000
0
LINE
8
0
10
218.602300
20
241.660000
11
218.602000
21
84.824100
0
LINE
8
0
10
171.669000
20
84.824100
11
172.475642
21
83.339572
0
LINE
8
0
10
172.475642
20
83.339572
11
173.135347
21
81.811541
0
LINE
8
0
10
173.135347
20
81.811541
11
174.020075
21
78.662528
0
LINE
8
0
10
174.020075
20
78.662528
11
174.335434
21
75.452173
0
LINE
8
0
10
174.335434
20
75.452173
11
174.093679
21
72.255587
0
LINE
8
0
10
174.093679
20
72.255587
11
173.307060
21
69.147880
0
LINE
8
0
10
173.307060
20
69.147880
11
171.987830
21
66.204164
0
LINE
8
0
10
171.987830
20
66.204164
11
170.148242
21
63.499550
0
LINE
8
0
10
170.148242
20
63.499550
11
169.037143
21
62.260378
0
LINE
8
0
10
169.037143
20
62.260378
11
167.800549
21
61.109148
0
LINE
8
0
10
167.800549
20
61.109148
11
166.465251
21
60.074027
0
LINE
8
0
10
166.465251
20
60.074027
11
165.063362
21
59.176922
0
LINE
8
0
10
165.063362
20
59.176922
11
162.097864
21
57.796760
0
LINE
8
0
10
162.097864
20
57.796760
11
158.980159
21
56.968663
0
LINE
8
0
10
158.980159
20
56.968663
11
155.786350
21
56.692631
0
LINE
8
0
10
155.786350
20
56.692631
11
152.592541
21
56.968663
0
LINE
8
0
10
152.592541
20
56.968663
11
149.474836
21
57.796760
0
LINE
8
0
10
149.474836
20
57.796760
11
146.509338
21
59.176922
0
LINE
8
0
10
146.509338
20
59.176922
11
145.107449
21
60.074027
0
LINE
8
0
10
145.107449
20
60.074027
11
143.772151
21
61.109148
0
LINE
8
0
10
143.772151
20
61.109148
11
142.535557
21
62.260378
0
LINE
8
0
10
142.535557
20
62.260378
11
141.424458
21
63.499550
0
LINE
8
0
10
141.424458
20
63.499550
11
139.584870
21
66.204164
0
LINE
8
0
10
139.584870
20
66.204164
11
138.265640
21
69.147880
0
LINE
8
0
10
138.265640
20
69.147880
11
137.479021
21
72.255587
0
LINE
8
0
10
137.479021
20
72.255587
11
137.237266
21
75.452173
0
LINE
8
0
10
137.237266
20
75.452173
11
137.552625
21
78.662528
0
LINE
8
0
10
137.552625
20
78.662528
11
138.437353
21
81.811541
0
LINE
8
0
10
138.437353
20
81.811541
11
139.097058
21
83.339572
0
LINE
8
0
10
139.097058
20
83.339572
11
139.903700
21
84.824100
0
LINE
8
0
10
139.903700
20
84.824100
11
139.903000
21
241.660000
0
LINE
8
0
10
139.903000
20
241.660000
11
139.096358
21
243.144528
0
LINE
8
0
10
139.096358
20
243.144528
11
138.436653
21
244.672559
0
LINE
8
0
10
138.436653
20
244.672559
11
137.551925
21
247.821572
0
LINE
8
0
10
137.551925
20
247.821572
11
137.236566
21
251.031927
0
LINE
8
0
10
137.236566
20
251.031927
11
137.478321
21
254.228513
0
LINE
8
0
10
137.478321
20
254.228513
11
138.264940
21
257.336220
0
LINE
8
0
10
138.264940
20
257.336220
11
139.584170
21
260.279936
0
LINE
8
0
10
139.584170
20
260.279936
11
141.423758
21
262.984550
0
LINE
8
0
10
141.423758
20
262.984550
11
142.534857
21
264.223722
0
LINE
8
0
10
142.534857
20
264.223722
11
143.771451
21
265.374952
0
LINE
8
0
10
143.771451
20
265.374952
11
145.106749
21
266.410073
0
LINE
8
0
10
145.106749
20
266.410073
11
146.508638
21
267.307178
0
LINE
8
0
10
146.508638
20
267.307178
11
149.474136
21
268.687340
0
LINE
8
0
10
149.474136
20
268.687340
11
152.591841
21
269.515437
0
LINE
8
0
10
152.591841
20
269.515437
11
155.785650
21
269.791469
0
LINE
8
0
10
155.785650
20
269.791469
11
158.979459
21
269.515437
0
LINE
8
0
10
158.979459
20
269.515437
11
162.097164
21
268.687340
0
LINE
8
0
10
162.097164
20
268.687340
11
165.062662
21
267.307178
0
LINE
8
0
10
165.062662
20
267.307178
11
166.464551
21
266.410073
0
LINE
8
0
10
166.464551
20
266.410073
11
167.799849
21
265.374952
0
LINE
8
0
10
167.799849
20
265.374952
11
169.036443
21
264.223722
0
LINE
8
0
10
169.036443
20
264.223722
11
170.147542
21
262.984550
0
LINE
8
0
10
170.147542
20
262.984550
11
171.987130
21
260.279936
0
LINE
8
0
10
171.987130
20
260.279936
11
173.306360
21
257.336220
0
LINE
8
0
10
173.306360
20
257.336220
11
174.092979
21
254.228513
0
LINE
8
0
10
174.092979
20
254.228513
11
174.334734
21
251.031927
0
LINE
8
0
10
174.334734
20
251.031927
11
174.019375
21
247.821572
0
LINE
8
0
10
174.019375
20
247.821572
11
173.134647
21
244.672559
0
LINE
8
0
10
173.134647
20
244.672559
11
172.474942
21
243.144528
0
LINE
8
0
10
172.474942
20
243.144528
11
171.668300
21
241.660000
0
LINE
8
0
10
171.668300
20
241.660000
11
171.669000
21
84.824100
0
LINE
8
0
10
124.735000
20
84.824100
11
125.541642
21
83.339572
0
LINE
8
0
10
125.541642
20
83.339572
11
126.201347
21
81.811541
0
LINE
8
0
10
126.201347
20
81.811541
11
127.086075
21
78.662528
0
LINE
8
0
10
127.086075
20
78.662528
11
127.401434
21
75.452173
0
LINE
8
0
10
127.401434
20
75.452173
11
127.159679
21
72.255587
0
LINE
8
0
10
127.159679
20
72.255587
11
126.373060
21
69.147880
0
LINE
8
0
10
126.373060
20
69.147880
11
125.053830
21
66.204164
0
LINE
8
0
10
125.053830
20
66.204164
11
123.214242
21
63.499550
0
LINE
8
0
10
123.214242
20
63.499550
11
122.103143
21
62.260378
0
LINE
8
0
10
122.103143
20
62.260378
11
120.866549
21
61.109148
0
LINE
8
0
10
120.866549
20
61.109148
11
119.531251
21
60.074027
0
LINE
8
0
10
119.531251
20
60.074027
11
118.129362
21
59.176922
0
LINE
8
0
10
118.129362
20
59.176922
11
115.163864
21
57.796760
0
LINE
8
0
10
115.163864
20
57.796760
11
112.046159
21
56.968663
0
LINE
8
0
10
112.046159
20
56.968663
11
108.852350
21
56.692631
0
LINE
8
0
10
108.852350
20
56.692631
11
105.658541
21
56.968663
0
LINE
8
0
10
105.658541
20
56.968663
11
102.540836
21
57.796760
0
LINE
8
0
10
102.540836
20
57.796760
11
99.575338
21
59.176922
0
LINE
8
0
10
99.575338
20
59.176922
11
98.173449
21
60.074027
0
LINE
8
0
10
98.173449
20
60.074027
11
96.838151
21
61.109148
0
LINE
8
0
10
96.838151
20
61.109148
11
95.601557
21
62.260378
0
LINE
8
0
10
95.601557
20
62.260378
11
94.490458
21
63.499550
0
LINE
8
0
10
94.490458
20
63.499550
11
92.650870
21
66.204164
0
LINE
8
0
10
92.650870
20
66.204164
11
91.331640
21
69.147880
0
LINE
8
0
10
91.331640
20
69.147880
11
90.545021
21
72.255587
0
LINE
8
0
10
90.545021
20
72.255587
11
90.303266
21
75.452173
0
LINE
8
0
10
90.303266
20
75.452173
11
90.618625
21
78.662528
0
LINE
8
0
10
90.618625
20
78.662528
11
91.503353
21
81.811541
0
LINE
8
0
10
91.503353
20
81.811541
11
92.163058
21
83.339572
0
LINE
8
0
10
92.163058
20
83.339572
11
92.969700
21
84.824100
0
LINE
8
0
10
92.969700
20
84.824100
11
92.970100
21
241.660000
0
LINE
8
0
10
92.970100
20
241.660000
11
92.163458
21
243.144528
0
LINE
8
0
10
92.163458
20
243.144528
11
91.503753
21
244.672559
0
LINE
8
0
10
91.503753
20
244.672559
11
90.619025
21
247.821572
0
LINE
8
0
10
90.619025
20
247.821572
11
90.303666
21
251.031927
0
LINE
8
0
10
90.303666
20
251.031927
11
90.545421
21
254.228513
0
LINE
8
0
10
90.545421
20
254.228513
11
91.332040
21
257.336220
0
LINE
8
0
10
91.332040
20
257.336220
11
92.651270
21
260.279936
0
LINE
8
0
10
92.651270
20
260.279936
11
94.490858
21
262.984550
0
LINE
8
0
10
94.490858
20
262.984550
11
95.601957
21
264.223722
0
LINE
8
0
10
95.601957
20
264.223722
11
96.838551
21
265.374952
0
LINE
8
0
10
96.838551
20
265.374952
11
98.173849
21
266.410073
0
LINE
8
0
10
98.173849
20
266.410073
11
99.575738
21
267.307178
0
LINE
8
0
10
99.575738
20
267.307178
11
102.541236
21
268.687340
0
LINE
8
0
10
102.541236
20
268.687340
11
105.658941
21
269.515437
0
LINE
8
0
10
105.658941
20
269.515437
11
108.852750
21
269.791469
0
LINE
8
0
10
108.852750
20
269.791469
11
112.046559
21
269.515437
0
LINE
8
0
10
112.046559
20
269.515437
11
115.164264
21
268.687340
0
LINE
8
0
10
115.164264
20
268.687340
11
118.129762
21
267.307178
0
LINE
8
0
10
118.129762
20
267.307178
11
119.531651
21
266.410073
0
LINE
8
0
10
119.531651
20
266.410073
11
120.866949
21
265.374952
0
LINE
8
0
10
120.866949
20
265.374952
11
122.103543
21
264.223722
0
LINE
8
0
10
122.103543
20
264.223722
11
123.214642
21
262.984550
0
LINE
8
0
10
123.214642
20
262.984550
11
125.054230
21
260.279936
0
LINE
8
0
10
125.054230
20
260.279936
11
126.373460
21
257.336220
0
LINE
8
0
10
126.373460
20
257.336220
11
127.160079
21
254.228513
0
LINE
8
0
10
127.160079
20
254.228513
11
127.401834
21
251.031927
0
LINE
8
0
10
127.401834
20
251.031927
11
127.086475
21
247.821572
0
LINE
8
0
10
127.086475
20
247.821572
11
126.201747
21
244.672559
0
LINE
8
0
10
126.201747
20
244.672559
11
125.542042
21
243.144528
0
LINE
8
0
10
125.542042
20
243.144528
11
124.735400
21
241.660000
0
LINE
8
0
10
124.735400
20
241.660000
11
124.735000
21
84.824100
0
LINE
8
0
10
77.802100
20
84.824100
11
78.608742
21
83.339572
0
LINE
8
0
10
78.608742
20
83.339572
11
79.268447
21
81.811541
0
LINE
8
0
10
79.268447
20
81.811541
11
80.153175
21
78.662528
0
LINE
8
0
10
80.153175
20
78.662528
11
80.468534
21
75.452173
0
LINE
8
0
10
80.468534
20
75.452173
11
80.226779
21
72.255587
0
LINE
8
0
10
80.226779
20
72.255587
11
79.440160
21
69.147880
0
LINE
8
0
10
79.440160
20
69.147880
11
78.120930
21
66.204164
0
LINE
8
0
10
78.120930
20
66.204164
11
76.281342
21
63.499550
0
LINE
8
0
10
76.281342
20
63.499550
11
75.170243
21
62.260378
0
LINE
8
0
10
75.170243
20
62.260378
11
73.933649
21
61.109148
0
LINE
8
0
10
73.933649
20
61.109148
11
72.598351
21
60.074027
0
LINE
8
0
10
72.598351
20
60.074027
11
71.196462
21
59.176922
0
LINE
8
0
10
71.196462
20
59.176922
11
68.230964
21
57.796760
0
LINE
8
0
10
68.230964
20
57.796760
11
65.113259
21
56.968663
0
LINE
8
0
10
65.113259
20
56.968663
11
61.919450
21
56.692631
0
LINE
8
0
10
61.919450
20
56.692631
11
58.725641
21
56.968663
0
LINE
8
0
10
58.725641
20
56.968663
11
55.607936
21
57.796760
0
LINE
8
0
10
55.607936
20
57.796760
11
52.642438
21
59.176922
0
LINE
8
0
10
52.642438
20
59.176922
11
51.240549
21
60.074027
0
LINE
8
0
10
51.240549
20
60.074027
11
49.905251
21
61.109148
0
LINE
8
0
10
49.905251
20
61.109148
11
48.668657
21
62.260378
0
LINE
8
0
10
48.668657
20
62.260378
11
47.557558
21
63.499550
0
LINE
8
0
10
47.557558
20
63.499550
11
45.717970
21
66.204164
0
LINE
8
0
10
45.717970
20
66.204164
11
44.398740
21
69.147880
0
LINE
8
0
10
44.398740
20
69.147880
11
43.612121
21
72.255587
0
LINE
8
0
10
43.612121
20
72.255587
11
43.370366
21
75.452173
0
LINE
8
0
10
43.370366
20
75.452173
11
43.685725
21
78.662528
0
LINE
8
0
10
43.685725
20
78.662528
11
44.570453
21
81.811541
0
LINE
8
0
10
44.570453
20
81.811541
11
45.230158
21
83.339572
0
LINE
8
0
10
45.230158
20
83.339572
11
46.036800
21
84.824100
0
LINE
8
0
10
46.036800
20
84.824100
11
46.036700
21
241.660000
0
LINE
8
0
10
46.036700
20
241.660000
11
45.230058
21
243.144528
0
LINE
8
0
10
45.230058
20
243.144528
11
44.570353
21
244.672559
0
LINE
8
0
10
44.570353
20
244.672559
11
43.685625
21
247.821572
0
LINE
8
0
10
43.685625
20
247.821572
11
43.370266
21
251.031927
0
LINE
8
0
10
43.370266
20
251.031927
11
43.612021
21
254.228513
0
LINE
8
0
10
43.612021
20
254.228513
11
44.398640
21
257.336220
0
LINE
8
0
10
44.398640
20
257.336220
11
45.717870
21
260.279936
0
LINE
8
0
10
45.717870
20
260.279936
11
47.557458
21
262.984550
0
LINE
8
0
10
47.557458
20
262.984550
11
48.668557
21
264.223722
0
LINE
8
0
10
48.668557
20
264.223722
11
49.905151
21
265.374952
0
LINE
8
0
10
49.905151
20
265.374952
11
51.240449
21
266.410073
0
LINE
8
0
10
51.240449
20
266.410073
11
52.642338
21
267.307178
0
LINE
8
0
10
52.642338
20
267.307178
11
55.607836
21
268.687340
0
LINE
8
0
10
55.607836
20
268.687340
11
58.725541
21
269.515437
0
LINE
8
0
10
58.725541
20
269.515437
11
61.919350
21
269.791469
0
LINE
8
0
10
61.919350
20
269.791469
11
65.113159
21
269.515437
0
LINE
8
0
10
65.113159
20
269.515437
11
68.230864
21
268.687340
0
LINE
8
0
10
68.230864
20
268.687340
11
71.196362
21
267.307178
0
LINE
8
0
10
71.196362
20
267.307178
11
72.598251
21
266.410073
0
LINE
8
0
10
72.598251
20
266.410073
11
73.933549
21
265.374952
0
LINE
8
0
10
73.933549
20
265.374952
11
75.170143
21
264.223722
0
LINE
8
0
10
75.170143
20
264.223722
11
76.281242
21
262.984550
0
LINE
8
0
10
76.281242
20
262.984550
11
78.120830
21
260.279936
0
LINE
8
0
10
78.120830
20
260.279936
11
79.440060
21
257.336220
0
LINE
8
0
10
79.440060
20
257.336220
11
80.226679
21
254.228513
0
LINE
8
0
10
80.226679
20
254.228513
11
80.468434
21
251.031927
0
LINE
8
0
10
80.468434
20
251.031927
11
80.153075
21
247.821572
0
LINE
8
0
10
80.153075
20
247.821572
11
79.268347
21
244.672559
0
LINE
8
0
10
79.268347
20
244.672559
11
78.608642
21
243.144528
0
LINE
8
0
10
78.608642
20
243.144528
11
77.802000
21
241.660000
0
LINE
8
0
10
77.802000
20
241.660000
11
77.802100
21
84.824100
 0 
ENDSEC
 0 
EOF